

Release info:

General
Format                                   : Matroska
Format version                           : Version 2
File size                                : 962 MiB
Duration                                 : 1h 26mn
Overall bit rate                         : 1 551 Kbps


Video
ID                                       : 1
Format                                   : MPEG-4 Visual
Format profile                           : Advanced Simple@L5
Format settings, BVOP                    : Yes
Format settings, QPel                    : No
Format settings, GMC                     : No warppoints
Format settings, Matrix                  : Default (H.263)
Codec ID                                 : V_MS/VFW/FOURCC / XVID
Codec ID/Hint                            : XviD
Duration                                 : 1h 26mn
Bit rate                                 : 1 392 Kbps
Width                                    : 680 pixels
Height                                   : 376 pixels
Display aspect ratio                     : 16:9
Frame rate mode                          : Constant
Frame rate                               : 29.970 fps
Color space                              : YUV
Chroma subsampling                       : 4:2:0
Bit depth                                : 8 bits
Scan type                                : Progressive
Compression mode                         : Lossy
Bits/(Pixel*Frame)                       : 0.182
Stream size                              : 863 MiB (90%)
Writing library                          : XviD 64
Language                                 : English
Default                                  : Yes
Forced                                   : No

Audio
ID                                       : 2
Format                                   : MPEG Audio
Format version                           : Version 1
Format profile                           : Layer 3
Mode                                     : Joint stereo
Mode extension                           : MS Stereo
Muxing mode                              : Header stripping
Codec ID                                 : A_MPEG/L3
Codec ID/Hint                            : MP3
Duration                                 : 1h 26mn
Bit rate mode                            : Constant
Bit rate                                 : 128 Kbps
Channel(s)                               : 2 channels
Sampling rate                            : 44.1 KHz
Compression mode                         : Lossy
Stream size                              : 79.4 MiB (8%)
Writing library                          : LAME3.98.2
Language                                 : English
Default                                  : Yes
Forced                                   : No



Source:
credit to original movie ripper UnKnOwN (Thanks)

Movie Info:

Kimberly is the mother of the worldΓÇÖs first successful human clone, a son named David. Seven years after his birth the Earth is plagued with war, famine, and natural disasters that seem to be emanating from the young boy himself.
Release Date: 2012
Genre: Horror/Thriller
Stars : Charles Hubbell , Bridget McGrath
Quality: DVDRip




Screen Shot:
 
http://www.shotpix.com/images/63239672373709330987.png 
http://www.shotpix.com/images/58362039028761319983.png 
http://www.shotpix.com/images/80229732184472298661.png 
http://www.shotpix.com/images/96505345585519560774.png 
http://www.shotpix.com/images/49577385979849861855.png 
http://www.shotpix.com/images/33479664631850488623.png